{
	"asset":{
		"generator":"Khronos glTF Blender I/O v3.6.28",
		"version":"2.0"
	},
	"scene":0,
	"scenes":[
		{
			"name":"Scene",
			"nodes":[
				1,
				2,
				3
			]
		}
	],
	"nodes":[
		{
			"name":"moai.obj.cleaner.materialmerger.gles"
		},
		{
			"children":[
				0
			],
			"name":"Sketchfab_model",
			"rotation":[
				-0.70710688829422,
				0,
				0,
				0.7071066498756409
			],
			"scale":[
				1.100000023841858,
				1.1000001430511475,
				0.9000000953674316
			]
		},
		{
			"mesh":0,
			"name":"\u7acb\u65b9\u4f53",
			"translation":[
				0,
				-0.13364791870117188,
				0
			]
		},
		{
			"name":"\u30a8\u30f3\u30d7\u30c6\u30a3",
			"rotation":[
				0.70710688829422,
				0,
				0,
				0.7071066498756409
			],
			"scale":[
				6.562046527862549,
				6.562045574188232,
				6.562045574188232
			],
			"translation":[
				22.451547622680664,
				0,
				0
			]
		}
	],
	"materials":[
		{
			"doubleSided":true,
			"name":"\u30de\u30c6\u30ea\u30a2\u30eb",
			"pbrMetallicRoughness":{
				"baseColorTexture":{
					"index":0
				},
				"metallicFactor":0.00917430967092514,
				"roughnessFactor":0.6146788597106934
			}
		}
	],
	"meshes":[
		{
			"name":"\u7acb\u65b9\u4f53",
			"primitives":[
				{
					"attributes":{
						"POSITION":0,
						"NORMAL":1,
						"TEXCOORD_0":2
					},
					"indices":3,
					"material":0
				}
			]
		}
	],
	"textures":[
		{
			"sampler":0,
			"source":0
		}
	],
	"images":[
		{
			"mimeType":"image/png",
			"name":"roo",
			"uri":"roo.png"
		}
	],
	"accessors":[
		{
			"bufferView":0,
			"componentType":5126,
			"count":410,
			"max":[
				1.071895718574524,
				0.15117114782333374,
				1.1356333494186401
			],
			"min":[
				-1.18952214717865,
				-2.872995615005493,
				-1.1397491693496704
			],
			"type":"VEC3"
		},
		{
			"bufferView":1,
			"componentType":5126,
			"count":410,
			"type":"VEC3"
		},
		{
			"bufferView":2,
			"componentType":5126,
			"count":410,
			"type":"VEC2"
		},
		{
			"bufferView":3,
			"componentType":5123,
			"count":474,
			"type":"SCALAR"
		}
	],
	"bufferViews":[
		{
			"buffer":0,
			"byteLength":4920,
			"byteOffset":0,
			"target":34962
		},
		{
			"buffer":0,
			"byteLength":4920,
			"byteOffset":4920,
			"target":34962
		},
		{
			"buffer":0,
			"byteLength":3280,
			"byteOffset":9840,
			"target":34962
		},
		{
			"buffer":0,
			"byteLength":948,
			"byteOffset":13120,
			"target":34963
		}
	],
	"samplers":[
		{
			"magFilter":9729,
			"minFilter":9987
		}
	],
	"buffers":[
		{
			"byteLength":14068,
			"uri":"aa.bin"
		}
	]
}
